<?xml version="1.0" encoding="UTF-8" standalone="no"?><svg xmlns="http://www.w3.org/2000/svg" xmlns:xlink="http://www.w3.org/1999/xlink" width="64" zoomAndPan="magnify" viewBox="0 0 48 48" height="64" preserveAspectRatio="xMidYMid meet" version="1.0"><defs><filter x="0%" y="0%" width="100%" height="100%" id="94779101b5"><feColorMatrix values="0 0 0 0 1 0 0 0 0 1 0 0 0 0 1 0 0 0 1 0" color-interpolation-filters="sRGB"/></filter><mask id="d09737b795"><g filter="url(#94779101b5)"><rect x="-4.8" width="57.6" fill="#000000" y="-4.8" height="57.6" fill-opacity="0.28"/></g></mask><clipPath id="b72b095161"><path d="M 0.777344 0.636719 L 13.121094 0.636719 L 13.121094 20.386719 L 0.777344 20.386719 Z M 0.777344 0.636719 " clip-rule="nonzero"/></clipPath><clipPath id="fa5aaf3cf1"><rect x="0" width="14" y="0" height="21"/></clipPath><clipPath id="a1acf24356"><path d="M 16 16.835938 L 34 16.835938 L 34 35.9375 L 16 35.9375 Z M 16 16.835938 " clip-rule="nonzero"/></clipPath><mask id="5e15c2bc2f"><g filter="url(#94779101b5)"><rect x="-4.8" width="57.6" fill="#000000" y="-4.8" height="57.6" fill-opacity="0.84"/></g></mask><clipPath id="bf884b5a58"><path d="M 0.480469 1.101562 L 15.667969 1.101562 L 15.667969 17.265625 L 0.480469 17.265625 Z M 0.480469 1.101562 " clip-rule="nonzero"/></clipPath><clipPath id="e29b367500"><path d="M 0.480469 9 L 6 9 L 6 17 L 0.480469 17 Z M 0.480469 9 " clip-rule="nonzero"/></clipPath><clipPath id="e21c9846ca"><path d="M 13 1.101562 L 15.667969 1.101562 L 15.667969 13 L 13 13 Z M 13 1.101562 " clip-rule="nonzero"/></clipPath><clipPath id="432388c87f"><path d="M 12 1.101562 L 15 1.101562 L 15 13 L 12 13 Z M 12 1.101562 " clip-rule="nonzero"/></clipPath><clipPath id="b7de35c683"><path d="M 0.480469 1.101562 L 15.667969 1.101562 L 15.667969 17.265625 L 0.480469 17.265625 Z M 0.480469 1.101562 " clip-rule="nonzero"/></clipPath><clipPath id="703d043d45"><rect x="0" width="16" y="0" height="19"/></clipPath></defs><g mask="url(#d09737b795)"><g transform="matrix(1, 0, 0, 1, 9, 9)"><g clip-path="url(#fa5aaf3cf1)"><g clip-path="url(#b72b095161)"><path fill="#1a6466" d="M 0.777344 16.621094 L 5.078125 16.621094 L 5.078125 7.277344 C 4.15625 7.75 3.113281 8.015625 2.007812 8.015625 L 0.777344 8.015625 L 0.777344 4.324219 L 2.007812 4.324219 C 3.703125 4.324219 5.078125 2.949219 5.078125 1.253906 L 5.078125 0.636719 L 8.769531 0.636719 L 8.769531 16.621094 L 13.070312 16.621094 L 13.070312 20.308594 L 0.777344 20.308594 Z M 0.777344 16.621094 " fill-opacity="1" fill-rule="nonzero"/></g></g></g></g><g clip-path="url(#a1acf24356)"><path fill="#1a6466" d="M 33.730469 28.535156 C 33.429688 27.484375 32.808594 26.550781 32.085938 25.742188 C 31.328125 24.894531 30.394531 24.222656 29.679688 23.339844 C 28.953125 22.441406 28.664062 21.3125 28.296875 20.242188 C 27.960938 19.28125 27.519531 18.285156 26.726562 17.609375 C 26.332031 17.265625 25.882812 17.042969 25.371094 16.933594 C 24.863281 16.835938 24.347656 16.875 23.84375 16.992188 C 22.808594 17.230469 21.871094 17.765625 20.871094 18.105469 C 20.332031 18.285156 19.796875 18.371094 19.234375 18.421875 C 18.664062 18.472656 18.082031 18.539062 17.566406 18.816406 C 17.359375 18.929688 17.148438 19.078125 17 19.265625 C 16.972656 19.296875 16.949219 19.328125 16.929688 19.363281 C 16.890625 19.40625 16.851562 19.449219 16.816406 19.492188 C 16.214844 20.207031 15.933594 21.167969 16.082031 22.09375 C 16.25 23.113281 16.914062 23.953125 17.421875 24.824219 C 17.675781 25.261719 17.886719 25.71875 17.972656 26.21875 C 18.082031 26.84375 18.003906 27.484375 17.976562 28.113281 C 17.929688 29.414062 17.996094 30.710938 18.179688 32.003906 C 18.332031 33.082031 18.511719 34.296875 19.4375 35.003906 C 20.191406 35.578125 21.199219 35.640625 22.097656 35.492188 C 23.164062 35.316406 24.105469 34.773438 25.054688 34.296875 C 25.558594 34.042969 26.074219 33.808594 26.617188 33.65625 C 27.171875 33.503906 27.734375 33.476562 28.304688 33.503906 C 29.449219 33.554688 30.660156 33.796875 31.761719 33.359375 C 32.65625 33.003906 33.292969 32.253906 33.636719 31.367188 C 33.988281 30.464844 34 29.460938 33.730469 28.535156 Z M 33.730469 28.535156 " fill-opacity="1" fill-rule="nonzero"/></g><g mask="url(#5e15c2bc2f)"><g transform="matrix(1, 0, 0, 1, 14, 20)"><g clip-path="url(#703d043d45)"><g clip-path="url(#bf884b5a58)"><path fill="#000000" d="M 1.558594 17.074219 C 1.554688 17.074219 1.550781 17.074219 1.546875 17.074219 C 1.128906 17.117188 0.6875 17.210938 0.320312 16.957031 C 0.253906 16.910156 0.242188 16.839844 0.261719 16.78125 C 0.261719 16.78125 0.261719 16.78125 0.261719 16.777344 C 0.304688 15.265625 0.972656 13.796875 1.710938 12.492188 C 2.40625 11.253906 3.148438 9.917969 4.273438 8.992188 C 4.261719 8.960938 4.265625 8.917969 4.292969 8.875 C 4.394531 8.738281 4.503906 8.597656 4.609375 8.464844 C 3.464844 7.9375 3.453125 6.917969 3.617188 5.785156 C 3.765625 4.730469 4.09375 3.332031 5.28125 2.964844 C 6.179688 2.691406 7.199219 2.675781 8.128906 2.742188 C 9.097656 2.808594 10.085938 2.867188 11.050781 3.015625 C 11.800781 3.128906 12.507812 3.429688 13.035156 3.96875 C 13.214844 4.152344 13.324219 4.363281 13.390625 4.585938 C 13.460938 4.105469 13.550781 3.625 13.679688 3.15625 C 13.851562 2.546875 14.074219 1.953125 14.136719 1.320312 C 14.144531 1.261719 14.175781 1.21875 14.222656 1.199219 C 14.246094 1.164062 14.285156 1.144531 14.339844 1.148438 C 15.613281 1.238281 15.664062 3.011719 15.632812 3.925781 C 15.582031 5.402344 15.632812 6.886719 15.363281 8.347656 C 15.199219 9.238281 14.980469 10.144531 14.605469 10.980469 C 14.335938 11.582031 13.921875 12.347656 13.199219 12.476562 C 13.175781 12.519531 13.132812 12.546875 13.070312 12.546875 C 12.433594 12.519531 12.363281 11.957031 12.40625 11.445312 C 12.464844 10.667969 12.574219 9.890625 12.699219 9.117188 C 12.40625 9.59375 11.839844 9.792969 11.164062 9.871094 C 9.539062 10.058594 8.042969 9.753906 6.484375 9.355469 C 6.484375 9.355469 6.480469 9.355469 6.480469 9.355469 C 6.191406 9.644531 5.871094 9.890625 5.636719 10.046875 C 5.605469 10.070312 5.574219 10.074219 5.542969 10.070312 C 4.539062 10.628906 3.96875 11.800781 3.4375 12.75 C 3.082031 13.378906 2.730469 14.003906 2.414062 14.652344 C 2.113281 15.257812 1.613281 16.1875 1.726562 16.886719 C 1.746094 17 1.644531 17.074219 1.558594 17.074219 " fill-opacity="1" fill-rule="nonzero"/></g><path fill="#000000" d="M 2.777344 15.652344 C 2.789062 15.632812 2.808594 15.609375 2.824219 15.589844 C 2.976562 15.386719 3.214844 15.1875 3.394531 15.019531 C 3.53125 14.890625 3.683594 14.730469 3.871094 14.679688 C 3.921875 14.664062 3.96875 14.695312 3.984375 14.742188 C 4.039062 14.910156 4.085938 15.085938 4.136719 15.257812 C 4.1875 15.429688 4.222656 15.789062 4.351562 15.921875 C 4.417969 15.988281 4.355469 16.09375 4.265625 16.070312 C 4.113281 16.035156 3.960938 16.019531 3.8125 15.988281 C 3.761719 16.265625 3.769531 16.539062 3.769531 16.820312 C 3.769531 16.878906 3.710938 16.917969 3.652344 16.90625 C 3.492188 16.871094 3.0625 16.691406 2.910156 16.757812 C 2.859375 16.785156 2.789062 16.75 2.78125 16.695312 C 2.769531 16.667969 2.777344 16.640625 2.796875 16.621094 C 2.90625 16.441406 3.015625 16.261719 3.101562 16.070312 C 3.214844 15.800781 2.980469 15.742188 2.777344 15.652344 " fill-opacity="1" fill-rule="nonzero"/><path fill="#000000" d="M 5.394531 13.476562 C 5.257812 13.402344 5.113281 13.359375 4.976562 13.292969 C 4.863281 13.554688 4.804688 13.824219 4.734375 14.097656 C 4.722656 14.15625 4.652344 14.171875 4.601562 14.152344 C 4.457031 14.085938 4.085938 13.816406 3.925781 13.84375 C 3.910156 13.847656 3.894531 13.847656 3.878906 13.84375 C 3.878906 13.84375 3.875 13.84375 3.875 13.84375 C 3.867188 13.839844 3.859375 13.839844 3.855469 13.835938 C 3.847656 13.832031 3.84375 13.828125 3.839844 13.824219 C 3.835938 13.820312 3.832031 13.820312 3.828125 13.816406 C 3.824219 13.8125 3.820312 13.804688 3.820312 13.800781 C 3.816406 13.792969 3.8125 13.789062 3.808594 13.78125 C 3.808594 13.78125 3.808594 13.777344 3.808594 13.773438 C 3.804688 13.765625 3.804688 13.761719 3.804688 13.753906 C 3.804688 13.746094 3.808594 13.742188 3.808594 13.734375 C 3.808594 13.730469 3.808594 13.730469 3.808594 13.726562 C 3.816406 13.710938 3.824219 13.699219 3.835938 13.6875 C 3.949219 13.574219 4.058594 13.460938 4.164062 13.34375 C 4.441406 13.03125 4.304688 12.90625 4.015625 12.675781 C 4.242188 12.53125 4.511719 12.425781 4.753906 12.285156 C 4.933594 12.179688 5.132812 12.042969 5.347656 12.03125 C 5.402344 12.027344 5.433594 12.074219 5.4375 12.121094 C 5.453125 12.316406 5.457031 12.511719 5.464844 12.707031 C 5.476562 12.871094 5.429688 13.207031 5.519531 13.355469 C 5.570312 13.433594 5.472656 13.515625 5.394531 13.476562 " fill-opacity="1" fill-rule="nonzero"/><path fill="#000000" d="M 6.988281 11.429688 C 6.980469 11.425781 6.972656 11.417969 6.964844 11.414062 C 6.964844 11.414062 6.964844 11.414062 6.964844 11.410156 C 6.855469 11.324219 6.734375 11.273438 6.621094 11.15625 C 6.449219 11.410156 6.328125 11.632812 6.191406 11.878906 C 6.160156 11.933594 6.089844 11.941406 6.046875 11.90625 C 5.929688 11.8125 5.640625 11.484375 5.484375 11.457031 C 5.449219 11.464844 5.417969 11.453125 5.398438 11.429688 C 5.398438 11.425781 5.394531 11.425781 5.394531 11.421875 C 5.390625 11.417969 5.386719 11.414062 5.382812 11.410156 C 5.382812 11.402344 5.378906 11.398438 5.378906 11.390625 C 5.375 11.386719 5.375 11.382812 5.375 11.375 C 5.375 11.371094 5.375 11.367188 5.375 11.363281 C 5.375 11.355469 5.375 11.351562 5.378906 11.34375 C 5.378906 11.339844 5.382812 11.335938 5.382812 11.332031 C 5.386719 11.324219 5.390625 11.320312 5.390625 11.316406 C 5.398438 11.308594 5.402344 11.304688 5.410156 11.296875 C 5.414062 11.296875 5.414062 11.296875 5.417969 11.292969 C 5.589844 11.1875 5.761719 11.085938 5.921875 10.964844 C 6.257812 10.707031 5.890625 10.636719 5.832031 10.382812 C 6.058594 10.261719 6.40625 10.226562 6.660156 10.152344 C 6.863281 10.09375 7.097656 10.003906 7.3125 10.046875 C 7.367188 10.058594 7.382812 10.109375 7.375 10.15625 C 7.34375 10.339844 7.296875 10.519531 7.261719 10.703125 C 7.226562 10.863281 7.085938 11.207031 7.140625 11.367188 C 7.171875 11.457031 7.050781 11.488281 6.988281 11.429688 " fill-opacity="1" fill-rule="nonzero"/><path fill="#83e046" d="M 3.074219 15.59375 C 3.207031 15.628906 3.316406 15.691406 3.335938 15.867188 C 3.359375 16.09375 3.183594 16.359375 3.042969 16.574219 C 3.21875 16.585938 3.421875 16.65625 3.585938 16.707031 C 3.585938 16.417969 3.589844 16.136719 3.652344 15.855469 C 3.660156 15.808594 3.71875 15.78125 3.761719 15.792969 C 3.878906 15.828125 4 15.84375 4.121094 15.863281 C 4.082031 15.757812 4.058594 15.640625 4.035156 15.554688 C 3.964844 15.332031 3.90625 15.105469 3.835938 14.882812 C 3.566406 15.015625 3.34375 15.402344 3.074219 15.59375 " fill-opacity="1" fill-rule="nonzero"/><path fill="#83e046" d="M 4.539062 13.070312 C 4.453125 13.3125 4.269531 13.507812 4.085938 13.691406 C 4.253906 13.742188 4.441406 13.859375 4.585938 13.941406 C 4.65625 13.664062 4.726562 13.390625 4.851562 13.128906 C 4.875 13.085938 4.9375 13.074219 4.976562 13.097656 C 5.082031 13.15625 5.191406 13.195312 5.304688 13.238281 C 5.289062 13.113281 5.300781 12.972656 5.292969 12.871094 C 5.28125 12.65625 5.277344 12.4375 5.261719 12.222656 C 4.96875 12.289062 4.660156 12.613281 4.355469 12.746094 C 4.492188 12.8125 4.597656 12.910156 4.539062 13.070312 " fill-opacity="1" fill-rule="nonzero"/><path fill="#83e046" d="M 6.265625 10.851562 C 6.128906 11.070312 5.894531 11.214844 5.667969 11.351562 C 5.816406 11.441406 5.96875 11.601562 6.085938 11.714844 C 6.226562 11.460938 6.359375 11.210938 6.550781 10.988281 C 6.585938 10.953125 6.648438 10.957031 6.679688 10.988281 C 6.765625 11.070312 6.863281 11.136719 6.960938 11.207031 C 6.980469 11.085938 7.019531 10.957031 7.039062 10.871094 C 7.085938 10.648438 7.136719 10.429688 7.179688 10.207031 C 6.878906 10.203125 6.496094 10.445312 6.167969 10.5 C 6.28125 10.59375 6.355469 10.710938 6.265625 10.851562 " fill-opacity="1" fill-rule="nonzero"/><g clip-path="url(#e29b367500)"><path fill="#333333" d="M 1.386719 15.425781 C 1.375 15.421875 1.402344 15.332031 1.457031 15.175781 C 1.484375 15.101562 1.523438 15.003906 1.5625 14.894531 C 1.582031 14.839844 1.605469 14.785156 1.628906 14.722656 C 1.652344 14.660156 1.675781 14.59375 1.699219 14.523438 C 1.796875 14.246094 1.914062 13.914062 2.054688 13.546875 C 2.09375 13.453125 2.125 13.359375 2.167969 13.265625 C 2.207031 13.171875 2.25 13.078125 2.292969 12.980469 C 2.339844 12.882812 2.382812 12.785156 2.429688 12.683594 C 2.476562 12.578125 2.527344 12.484375 2.582031 12.382812 C 3 11.578125 3.460938 10.886719 3.871094 10.441406 C 4.074219 10.21875 4.257812 10.054688 4.402344 9.960938 C 4.472656 9.90625 4.53125 9.882812 4.570312 9.859375 C 4.609375 9.839844 4.632812 9.832031 4.636719 9.835938 C 4.640625 9.84375 4.625 9.859375 4.589844 9.890625 C 4.558594 9.917969 4.503906 9.953125 4.445312 10.011719 C 4.320312 10.117188 4.148438 10.289062 3.964844 10.515625 C 3.585938 10.96875 3.148438 11.660156 2.734375 12.457031 C 2.683594 12.554688 2.628906 12.65625 2.585938 12.753906 C 2.539062 12.851562 2.492188 12.949219 2.449219 13.046875 C 2.402344 13.144531 2.359375 13.238281 2.316406 13.332031 C 2.273438 13.421875 2.238281 13.515625 2.203125 13.605469 C 2.054688 13.964844 1.921875 14.289062 1.8125 14.5625 C 1.785156 14.632812 1.757812 14.699219 1.730469 14.757812 C 1.703125 14.820312 1.675781 14.878906 1.652344 14.929688 C 1.597656 15.035156 1.554688 15.128906 1.519531 15.203125 C 1.445312 15.351562 1.398438 15.429688 1.386719 15.425781 Z M 0.566406 16.753906 C 0.828125 16.878906 1.128906 16.832031 1.417969 16.792969 C 1.390625 16.246094 1.632812 15.691406 1.835938 15.191406 C 2.160156 14.402344 2.578125 13.65625 2.996094 12.914062 C 3.605469 11.832031 4.238281 10.453125 5.394531 9.816406 C 5.40625 9.574219 5.347656 9.386719 5.113281 9.265625 C 4.953125 9.1875 4.765625 9.152344 4.582031 9.121094 C 4.578125 9.128906 4.574219 9.132812 4.566406 9.136719 C 3.453125 10.019531 2.757812 11.292969 2.0625 12.488281 C 1.308594 13.773438 0.617188 15.253906 0.566406 16.753906 " fill-opacity="1" fill-rule="nonzero"/></g><path fill="#808080" d="M 4.453125 5.441406 C 4.40625 5.5 4.414062 5.589844 4.417969 5.660156 C 4.417969 5.75 4.449219 5.785156 4.511719 5.796875 C 4.519531 5.792969 4.523438 5.785156 4.53125 5.78125 C 4.6875 5.707031 4.746094 5.488281 4.660156 5.34375 C 4.660156 5.34375 4.660156 5.34375 4.660156 5.339844 C 4.574219 5.355469 4.496094 5.382812 4.453125 5.441406 " fill-opacity="1" fill-rule="nonzero"/><path fill="#4d4d4d" d="M 4.257812 5.847656 C 4.246094 5.847656 4.242188 5.851562 4.234375 5.847656 C 4.238281 5.886719 4.242188 5.929688 4.246094 5.96875 C 4.300781 6.238281 4.726562 6.226562 5 6.230469 C 5.011719 6.195312 5.039062 6.179688 5.074219 6.175781 C 5.085938 6.160156 5.109375 6.152344 5.136719 6.15625 C 5.214844 6.160156 5.285156 6.160156 5.359375 6.15625 C 5.453125 6.148438 5.425781 6.164062 5.441406 6.078125 C 5.464844 5.953125 5.488281 5.832031 5.503906 5.710938 C 5.535156 5.480469 5.53125 5.21875 5.25 5.179688 C 5.191406 5.171875 5.171875 5.125 5.1875 5.082031 C 5.183594 5.070312 5.179688 5.058594 5.179688 5.046875 C 5.1875 4.941406 5.203125 4.84375 5.222656 4.75 C 5.003906 4.722656 4.785156 4.710938 4.566406 4.753906 C 4.253906 4.816406 4.25 5.199219 4.242188 5.441406 C 4.242188 5.445312 4.238281 5.453125 4.238281 5.460938 C 4.242188 5.460938 4.246094 5.464844 4.25 5.464844 C 4.261719 5.421875 4.277344 5.382812 4.296875 5.351562 C 4.445312 5.09375 4.929688 5.140625 5.15625 5.238281 C 5.175781 5.246094 5.1875 5.257812 5.195312 5.269531 C 5.402344 5.449219 5.417969 5.792969 5.238281 5.988281 C 5.148438 6.085938 4.996094 6.054688 4.886719 6.023438 C 4.734375 5.980469 4.582031 5.996094 4.429688 5.964844 C 4.359375 5.949219 4.3125 5.90625 4.28125 5.851562 C 4.277344 5.851562 4.277344 5.847656 4.273438 5.847656 C 4.269531 5.847656 4.261719 5.847656 4.257812 5.847656 " fill-opacity="1" fill-rule="nonzero"/><path fill="#808080" d="M 4.855469 5.339844 C 4.90625 5.5 4.875 5.691406 4.765625 5.824219 C 4.847656 5.835938 4.929688 5.851562 5.015625 5.875 C 5.277344 5.933594 5.164062 5.484375 5.058594 5.390625 C 5.007812 5.367188 4.933594 5.351562 4.855469 5.339844 " fill-opacity="1" fill-rule="nonzero"/><path fill="#808080" d="M 12.175781 7.050781 C 12.121094 7.332031 12.074219 7.671875 12.207031 7.941406 C 12.238281 8 12.289062 8.046875 12.355469 8.082031 C 12.449219 7.34375 12.710938 6.621094 12.667969 5.875 C 12.589844 5.867188 12.511719 5.867188 12.433594 5.871094 C 12.351562 6.265625 12.246094 6.652344 12.175781 7.050781 " fill-opacity="1" fill-rule="nonzero"/><g clip-path="url(#e21c9846ca)"><path fill="#e6e6e6" d="M 13.605469 9.207031 C 13.398438 10.191406 13.199219 11.175781 13.175781 12.179688 C 13.832031 12.050781 14.191406 11.199219 14.410156 10.667969 C 14.707031 9.945312 14.890625 9.179688 15.039062 8.417969 C 15.25 7.351562 15.277344 6.273438 15.292969 5.191406 C 15.300781 4.535156 15.351562 3.878906 15.332031 3.222656 C 15.316406 2.773438 15.199219 2.007812 14.800781 1.644531 C 14.796875 3.273438 14.316406 4.859375 14.074219 6.464844 C 13.933594 7.382812 13.800781 8.292969 13.605469 9.207031 " fill-opacity="1" fill-rule="nonzero"/></g><g clip-path="url(#432388c87f)"><path fill="#333333" d="M 12.910156 9.734375 C 12.859375 10.074219 12.457031 11.765625 12.871094 12.164062 C 12.914062 10.335938 13.53125 8.574219 13.730469 6.761719 C 13.925781 4.984375 14.523438 3.269531 14.492188 1.46875 C 14.472656 1.464844 14.449219 1.457031 14.425781 1.453125 C 14.316406 2.296875 13.984375 3.09375 13.8125 3.925781 C 13.621094 4.871094 13.539062 5.832031 13.390625 6.785156 C 13.242188 7.769531 13.054688 8.75 12.910156 9.734375 " fill-opacity="1" fill-rule="nonzero"/></g><path fill="#333333" d="M 12.648438 8.175781 C 12.71875 8.191406 12.789062 8.203125 12.847656 8.214844 C 12.972656 7.460938 13.085938 6.703125 13.195312 5.949219 C 13.121094 5.933594 13.050781 5.917969 12.976562 5.90625 C 13.007812 6.675781 12.730469 7.414062 12.648438 8.175781 " fill-opacity="1" fill-rule="nonzero"/><path fill="#4d4d4d" d="M 7.777344 8.722656 C 7.59375 8.949219 7.375 9.128906 7.101562 9.207031 C 8.128906 9.453125 9.125 9.640625 10.210938 9.628906 C 11.15625 9.613281 12.480469 9.613281 12.597656 8.460938 C 12.46875 8.429688 12.355469 8.390625 12.25 8.335938 C 12.003906 8.960938 11.109375 8.992188 10.515625 8.988281 C 9.625 8.984375 8.660156 8.867188 7.777344 8.722656 " fill-opacity="1" fill-rule="nonzero"/><path fill="#4d4d4d" d="M 3.988281 5.414062 C 3.769531 6.472656 3.578125 7.722656 4.796875 8.222656 C 4.855469 8.148438 4.914062 8.074219 4.96875 8 C 4.957031 7.976562 4.949219 7.949219 4.949219 7.917969 C 4.96875 7.710938 5.011719 7.527344 5.082031 7.359375 C 4.863281 7.09375 4.964844 6.75 4.988281 6.402344 C 4.703125 6.390625 4.378906 6.40625 4.167969 6.199219 C 3.996094 6.035156 4.050781 5.710938 4.054688 5.503906 C 4.0625 5.226562 4.078125 4.9375 4.265625 4.714844 C 4.46875 4.464844 4.992188 4.542969 5.269531 4.578125 C 5.71875 3.246094 7.714844 3.28125 8.96875 3.457031 C 9.859375 3.582031 10.8125 3.714844 11.675781 3.976562 C 12.542969 4.242188 12.671875 4.78125 12.660156 5.578125 C 12.828125 5.585938 12.992188 5.605469 13.15625 5.636719 C 13.1875 5.054688 13.167969 4.53125 12.71875 4.074219 C 12.222656 3.570312 11.496094 3.378906 10.8125 3.277344 C 10.050781 3.160156 9.273438 3.140625 8.503906 3.070312 C 7.632812 2.996094 6.785156 2.988281 5.921875 3.132812 C 5.269531 3.238281 4.816406 3.4375 4.472656 3.996094 C 4.207031 4.421875 4.085938 4.933594 3.988281 5.414062 " fill-opacity="1" fill-rule="nonzero"/><path fill="#333333" d="M 4.808594 8.691406 C 4.769531 8.742188 4.734375 8.792969 4.695312 8.84375 C 4.929688 8.890625 5.171875 8.941406 5.375 9.074219 C 5.582031 9.207031 5.675781 9.417969 5.695312 9.640625 C 5.761719 9.59375 5.828125 9.546875 5.894531 9.488281 C 5.835938 8.976562 5.324219 8.710938 4.808594 8.691406 " fill-opacity="1" fill-rule="nonzero"/><path fill="#333333" d="M 5.011719 8.433594 C 4.988281 8.464844 4.964844 8.492188 4.941406 8.523438 C 5.453125 8.578125 5.933594 8.859375 6.054688 9.339844 C 6.015625 9.15625 5.96875 8.976562 5.875 8.816406 C 5.707031 8.523438 5.339844 8.40625 5.011719 8.433594 " fill-opacity="1" fill-rule="nonzero"/><path fill="#333333" d="M 5.964844 8.453125 C 5.789062 8.324219 5.429688 8.171875 5.195312 8.253906 C 5.433594 8.269531 5.664062 8.351562 5.84375 8.507812 C 6.0625 8.703125 6.148438 8.949219 6.210938 9.214844 C 6.25 9.179688 6.285156 9.144531 6.320312 9.109375 C 6.296875 8.851562 6.1875 8.617188 5.964844 8.453125 " fill-opacity="1" fill-rule="nonzero"/><path fill="#333333" d="M 5.296875 8.050781 C 5.558594 8.035156 5.859375 8.175781 6.058594 8.300781 C 6.289062 8.445312 6.421875 8.683594 6.476562 8.933594 C 6.503906 8.902344 6.53125 8.867188 6.558594 8.832031 C 6.554688 8.273438 6.023438 7.734375 5.4375 7.84375 C 5.417969 7.871094 5.402344 7.898438 5.386719 7.921875 C 5.359375 7.964844 5.328125 8.007812 5.296875 8.050781 " fill-opacity="1" fill-rule="nonzero"/><path fill="#333333" d="M 5.570312 7.652344 C 6.113281 7.640625 6.59375 8.078125 6.714844 8.59375 C 6.863281 8.324219 6.921875 8.035156 6.796875 7.765625 C 6.640625 7.421875 6.199219 7.21875 5.84375 7.398438 C 5.734375 7.453125 5.644531 7.546875 5.570312 7.652344 " fill-opacity="1" fill-rule="nonzero"/><path fill="#333333" d="M 7.972656 8.445312 C 7.949219 8.484375 7.925781 8.523438 7.898438 8.5625 C 8.609375 8.671875 9.355469 8.742188 10.066406 8.792969 C 10.660156 8.835938 11.863281 8.933594 12.09375 8.234375 C 12.078125 8.21875 12.0625 8.207031 12.046875 8.191406 C 11.6875 8.617188 11.046875 8.636719 10.515625 8.632812 C 9.667969 8.628906 8.804688 8.601562 7.972656 8.445312 " fill-opacity="1" fill-rule="nonzero"/><path fill="#333333" d="M 5.167969 6.410156 C 5.140625 6.667969 5.058594 6.953125 5.171875 7.171875 C 5.382812 6.789062 5.71875 6.503906 6.097656 6.242188 C 6.136719 5.855469 6.195312 5.472656 6.273438 5.089844 C 6.335938 4.792969 6.390625 4.417969 6.597656 4.171875 C 7.003906 3.695312 7.902344 3.785156 8.453125 3.867188 C 9.59375 4.03125 10.777344 4.109375 11.902344 4.386719 C 12.089844 4.433594 12.234375 4.507812 12.34375 4.609375 C 12.316406 4.566406 12.285156 4.523438 12.253906 4.484375 C 12.015625 4.210938 11.5625 4.121094 11.226562 4.039062 C 10.617188 3.898438 9.984375 3.800781 9.367188 3.695312 C 8.070312 3.472656 5.492188 3.214844 5.367188 5.023438 C 5.882812 5.160156 5.652344 5.878906 5.597656 6.25 C 5.59375 6.277344 5.5625 6.308594 5.535156 6.3125 C 5.425781 6.328125 5.320312 6.335938 5.214844 6.335938 C 5.214844 6.367188 5.199219 6.398438 5.167969 6.410156 " fill-opacity="1" fill-rule="nonzero"/><path fill="#4d4d4d" d="M 6.292969 6.109375 C 6.371094 6.058594 6.449219 6.007812 6.527344 5.957031 C 6.5625 5.398438 6.726562 4.867188 6.820312 4.316406 C 6.835938 4.226562 6.910156 4.199219 6.984375 4.214844 C 6.992188 4.210938 7.003906 4.207031 7.015625 4.207031 C 7.210938 4.191406 7.410156 4.210938 7.597656 4.261719 C 7.671875 4.28125 7.703125 4.335938 7.707031 4.390625 C 7.71875 4.414062 7.726562 4.4375 7.726562 4.472656 C 7.722656 4.738281 7.667969 4.996094 7.640625 5.261719 C 7.675781 5.242188 7.707031 5.222656 7.742188 5.203125 C 8.101562 4.339844 8.832031 4.164062 9.75 4.328125 C 10.589844 4.480469 11.609375 4.75 11.707031 5.714844 C 11.796875 6.566406 11.5 7.726562 10.648438 8.125 C 9.910156 8.46875 8.949219 8.324219 8.199219 8.035156 C 8.160156 8.121094 8.113281 8.199219 8.070312 8.28125 C 8.761719 8.402344 9.453125 8.410156 10.152344 8.445312 C 10.714844 8.472656 11.566406 8.546875 11.933594 8.039062 C 11.886719 7.957031 11.851562 7.855469 11.832031 7.734375 C 11.722656 7.070312 12.035156 6.332031 12.160156 5.6875 C 12.179688 5.589844 12.265625 5.566406 12.339844 5.585938 C 12.355469 5.582031 12.367188 5.578125 12.382812 5.578125 C 12.414062 5.578125 12.445312 5.574219 12.480469 5.574219 C 12.476562 5.324219 12.472656 5.074219 12.339844 4.851562 C 12.160156 4.542969 11.636719 4.5 11.320312 4.4375 C 10.542969 4.289062 9.742188 4.25 8.960938 4.125 C 8.378906 4.03125 7.289062 3.777344 6.785156 4.230469 C 6.558594 4.433594 6.511719 4.859375 6.449219 5.136719 C 6.378906 5.457031 6.328125 5.785156 6.292969 6.109375 " fill-opacity="1" fill-rule="nonzero"/><path fill="#00912c" d="M 6.851562 5.746094 C 6.867188 5.738281 6.878906 5.730469 6.894531 5.71875 C 7.039062 5.625 7.179688 5.535156 7.324219 5.445312 C 7.320312 5.433594 7.320312 5.421875 7.320312 5.40625 C 7.328125 5.324219 7.335938 5.242188 7.347656 5.160156 C 7.238281 5.160156 7.066406 5.160156 6.957031 5.160156 C 6.914062 5.355469 6.875 5.550781 6.851562 5.746094 " fill-opacity="1" fill-rule="nonzero"/><path fill="#00912c" d="M 7.019531 4.863281 C 7.140625 4.863281 7.25 4.863281 7.386719 4.863281 C 7.402344 4.753906 7.414062 4.640625 7.421875 4.527344 C 7.3125 4.503906 7.203125 4.496094 7.09375 4.5 C 7.070312 4.621094 7.046875 4.742188 7.019531 4.863281 " fill-opacity="1" fill-rule="nonzero"/><path fill="#333333" d="M 8.351562 7.730469 C 8.347656 7.742188 8.339844 7.757812 8.332031 7.769531 C 8.894531 7.984375 9.527344 8.074219 10.125 7.976562 C 11.015625 7.828125 11.214844 7.121094 11.355469 6.367188 C 11.4375 5.929688 11.464844 5.476562 11.117188 5.140625 C 10.832031 4.867188 10.371094 4.765625 9.992188 4.679688 C 9.296875 4.519531 8.613281 4.464844 8.210938 4.984375 C 8.863281 4.71875 9.554688 4.628906 10.300781 4.925781 C 11.257812 5.304688 11.351562 6.253906 10.949219 7.074219 C 10.445312 8.105469 9.300781 7.890625 8.351562 7.730469 " fill-opacity="1" fill-rule="nonzero"/><path fill="#f2f2f2" d="M 9.472656 7.210938 C 9.46875 7.183594 9.601562 7.160156 9.792969 7.074219 C 9.839844 7.050781 9.890625 7.03125 9.941406 6.996094 C 9.96875 6.980469 9.996094 6.964844 10.019531 6.949219 C 10.046875 6.929688 10.074219 6.910156 10.101562 6.890625 C 10.207031 6.804688 10.308594 6.703125 10.390625 6.574219 C 10.472656 6.445312 10.515625 6.308594 10.53125 6.183594 C 10.535156 6.152344 10.535156 6.121094 10.539062 6.089844 C 10.535156 6.058594 10.535156 6.03125 10.53125 6.003906 C 10.53125 5.972656 10.523438 5.945312 10.515625 5.921875 C 10.511719 5.894531 10.503906 5.867188 10.5 5.84375 C 10.464844 5.753906 10.4375 5.675781 10.40625 5.621094 C 10.378906 5.570312 10.367188 5.535156 10.378906 5.53125 C 10.386719 5.523438 10.417969 5.542969 10.460938 5.585938 C 10.507812 5.625 10.558594 5.699219 10.613281 5.804688 C 10.621094 5.828125 10.632812 5.855469 10.644531 5.886719 C 10.65625 5.914062 10.667969 5.945312 10.671875 5.980469 C 10.675781 6.011719 10.683594 6.046875 10.6875 6.082031 C 10.6875 6.121094 10.6875 6.15625 10.6875 6.195312 C 10.679688 6.347656 10.632812 6.511719 10.539062 6.660156 C 10.445312 6.808594 10.320312 6.925781 10.195312 7.011719 C 10.164062 7.03125 10.132812 7.050781 10.101562 7.070312 C 10.070312 7.089844 10.039062 7.101562 10.011719 7.117188 C 9.949219 7.148438 9.890625 7.167969 9.835938 7.183594 C 9.617188 7.25 9.472656 7.230469 9.472656 7.210938 Z M 6.855469 6.398438 C 6.839844 6.386719 6.898438 6.261719 7.058594 6.097656 C 7.140625 6.015625 7.246094 5.933594 7.371094 5.847656 C 7.496094 5.765625 7.640625 5.683594 7.796875 5.609375 C 8.109375 5.46875 8.40625 5.371094 8.621094 5.3125 C 8.835938 5.253906 8.972656 5.230469 8.980469 5.25 C 8.988281 5.273438 8.867188 5.335938 8.660156 5.421875 C 8.457031 5.511719 8.171875 5.621094 7.871094 5.761719 C 7.71875 5.832031 7.578125 5.90625 7.457031 5.976562 C 7.335938 6.050781 7.226562 6.121094 7.140625 6.1875 C 6.96875 6.316406 6.875 6.414062 6.855469 6.398438 Z M 5.375 7.429688 C 5.375 7.429688 5.375 7.433594 5.375 7.4375 C 5.429688 7.367188 5.488281 7.300781 5.558594 7.238281 C 6.007812 6.828125 6.617188 7.070312 6.960938 7.46875 C 7.359375 7.929688 7.183594 8.472656 6.828125 8.953125 C 7.402344 8.941406 7.726562 8.351562 7.96875 7.839844 C 7.984375 7.765625 7.996094 7.679688 8.023438 7.589844 C 8.03125 7.558594 8.046875 7.523438 8.058594 7.492188 C 8.074219 7.457031 8.082031 7.421875 8.105469 7.386719 C 8.125 7.355469 8.148438 7.320312 8.171875 7.28125 C 8.195312 7.25 8.21875 7.226562 8.246094 7.195312 C 8.484375 6.957031 8.773438 6.875 8.96875 6.832031 C 9.171875 6.792969 9.296875 6.789062 9.304688 6.808594 C 9.308594 6.832031 9.191406 6.878906 9.003906 6.945312 C 8.910156 6.976562 8.804688 7.023438 8.691406 7.078125 C 8.582031 7.132812 8.464844 7.214844 8.375 7.308594 C 8.347656 7.335938 8.320312 7.363281 8.300781 7.386719 C 8.296875 7.394531 8.292969 7.402344 8.285156 7.410156 C 8.304688 7.414062 8.320312 7.421875 8.335938 7.429688 C 8.339844 7.429688 8.34375 7.429688 8.34375 7.429688 C 9.210938 7.578125 10.175781 7.832031 10.6875 6.925781 C 10.878906 6.578125 10.9375 6.164062 10.828125 5.785156 C 10.660156 5.230469 9.875 5.042969 9.363281 5.015625 C 8.425781 4.96875 7.652344 5.574219 6.921875 6.058594 C 6.328125 6.453125 5.648438 6.796875 5.375 7.429688 " fill-opacity="1" fill-rule="nonzero"/><g clip-path="url(#b7de35c683)"><path fill="#000000" d="M 13.175781 12.179688 C 13.199219 11.175781 13.398438 10.191406 13.605469 9.207031 C 13.800781 8.292969 13.933594 7.382812 14.074219 6.464844 C 14.316406 4.859375 14.796875 3.273438 14.800781 1.644531 C 15.199219 2.007812 15.316406 2.773438 15.332031 3.222656 C 15.351562 3.878906 15.300781 4.535156 15.292969 5.191406 C 15.277344 6.273438 15.25 7.351562 15.039062 8.417969 C 14.890625 9.179688 14.707031 9.945312 14.410156 10.667969 C 14.191406 11.199219 13.832031 12.050781 13.175781 12.179688 Z M 12.871094 12.164062 C 12.457031 11.765625 12.859375 10.074219 12.910156 9.734375 C 13.054688 8.75 13.242188 7.769531 13.390625 6.785156 C 13.539062 5.832031 13.621094 4.871094 13.8125 3.925781 C 13.984375 3.09375 14.316406 2.296875 14.425781 1.453125 C 14.449219 1.457031 14.472656 1.464844 14.492188 1.46875 C 14.523438 3.269531 13.925781 4.984375 13.730469 6.761719 C 13.53125 8.574219 12.914062 10.335938 12.871094 12.164062 Z M 12.847656 8.214844 C 12.789062 8.203125 12.71875 8.191406 12.648438 8.175781 C 12.730469 7.414062 13.007812 6.675781 12.976562 5.90625 C 13.050781 5.917969 13.121094 5.933594 13.195312 5.949219 C 13.085938 6.703125 12.972656 7.460938 12.847656 8.214844 Z M 12.207031 7.941406 C 12.074219 7.671875 12.121094 7.332031 12.175781 7.050781 C 12.246094 6.652344 12.351562 6.265625 12.433594 5.871094 C 12.511719 5.867188 12.589844 5.867188 12.667969 5.875 C 12.710938 6.621094 12.449219 7.34375 12.355469 8.082031 C 12.289062 8.046875 12.238281 8 12.207031 7.941406 Z M 8.332031 7.769531 C 8.339844 7.757812 8.347656 7.742188 8.351562 7.730469 C 9.300781 7.890625 10.445312 8.105469 10.949219 7.074219 C 11.351562 6.253906 11.257812 5.304688 10.300781 4.925781 C 9.554688 4.628906 8.863281 4.71875 8.210938 4.984375 C 8.613281 4.464844 9.296875 4.519531 9.992188 4.679688 C 10.371094 4.765625 10.832031 4.867188 11.117188 5.140625 C 11.464844 5.476562 11.4375 5.929688 11.355469 6.367188 C 11.214844 7.121094 11.015625 7.828125 10.125 7.976562 C 9.527344 8.074219 8.894531 7.984375 8.332031 7.769531 Z M 7.898438 8.5625 C 7.925781 8.523438 7.949219 8.484375 7.972656 8.445312 C 8.804688 8.601562 9.667969 8.628906 10.515625 8.632812 C 11.046875 8.636719 11.6875 8.617188 12.046875 8.191406 C 12.0625 8.207031 12.078125 8.21875 12.09375 8.234375 C 11.863281 8.933594 10.660156 8.835938 10.066406 8.792969 C 9.355469 8.742188 8.609375 8.671875 7.898438 8.5625 Z M 7.101562 9.207031 C 7.375 9.128906 7.59375 8.949219 7.777344 8.722656 C 8.660156 8.867188 9.625 8.984375 10.515625 8.988281 C 11.109375 8.992188 12.003906 8.960938 12.25 8.335938 C 12.355469 8.390625 12.46875 8.429688 12.597656 8.460938 C 12.480469 9.613281 11.15625 9.613281 10.210938 9.628906 C 9.125 9.640625 8.128906 9.453125 7.101562 9.207031 Z M 7.386719 4.863281 C 7.25 4.863281 7.140625 4.863281 7.019531 4.863281 C 7.046875 4.742188 7.070312 4.621094 7.09375 4.5 C 7.203125 4.496094 7.3125 4.503906 7.421875 4.527344 C 7.414062 4.640625 7.402344 4.753906 7.386719 4.863281 Z M 6.894531 5.71875 C 6.878906 5.730469 6.867188 5.738281 6.851562 5.746094 C 6.875 5.550781 6.914062 5.355469 6.957031 5.160156 C 7.066406 5.160156 7.238281 5.160156 7.347656 5.160156 C 7.335938 5.242188 7.328125 5.324219 7.320312 5.40625 C 7.320312 5.421875 7.320312 5.433594 7.324219 5.445312 C 7.179688 5.535156 7.039062 5.625 6.894531 5.71875 Z M 6.527344 5.957031 C 6.449219 6.007812 6.371094 6.058594 6.292969 6.109375 C 6.328125 5.785156 6.378906 5.457031 6.449219 5.136719 C 6.511719 4.859375 6.558594 4.433594 6.785156 4.230469 C 7.289062 3.777344 8.378906 4.03125 8.960938 4.125 C 9.742188 4.25 10.542969 4.289062 11.320312 4.4375 C 11.636719 4.5 12.160156 4.542969 12.339844 4.851562 C 12.472656 5.074219 12.476562 5.324219 12.480469 5.574219 C 12.445312 5.574219 12.414062 5.578125 12.382812 5.578125 C 12.367188 5.578125 12.355469 5.582031 12.339844 5.585938 C 12.265625 5.566406 12.179688 5.589844 12.160156 5.6875 C 12.035156 6.332031 11.722656 7.070312 11.832031 7.734375 C 11.851562 7.855469 11.886719 7.957031 11.933594 8.039062 C 11.566406 8.546875 10.714844 8.472656 10.152344 8.445312 C 9.453125 8.410156 8.761719 8.402344 8.070312 8.28125 C 8.113281 8.199219 8.160156 8.121094 8.199219 8.035156 C 8.949219 8.324219 9.910156 8.46875 10.648438 8.125 C 11.5 7.726562 11.796875 6.566406 11.707031 5.714844 C 11.609375 4.75 10.589844 4.480469 9.75 4.328125 C 8.832031 4.164062 8.101562 4.339844 7.742188 5.203125 C 7.707031 5.222656 7.675781 5.242188 7.640625 5.261719 C 7.667969 4.996094 7.722656 4.738281 7.726562 4.472656 C 7.726562 4.4375 7.71875 4.414062 7.707031 4.390625 C 7.703125 4.335938 7.671875 4.28125 7.597656 4.261719 C 7.410156 4.210938 7.210938 4.191406 7.015625 4.207031 C 7.003906 4.207031 6.992188 4.210938 6.984375 4.214844 C 6.910156 4.199219 6.835938 4.226562 6.820312 4.316406 C 6.726562 4.867188 6.5625 5.398438 6.527344 5.957031 Z M 6.714844 8.59375 C 6.59375 8.078125 6.113281 7.640625 5.570312 7.652344 C 5.644531 7.546875 5.734375 7.453125 5.84375 7.398438 C 6.199219 7.21875 6.640625 7.421875 6.796875 7.765625 C 6.921875 8.035156 6.863281 8.324219 6.714844 8.59375 Z M 5.375 7.4375 C 5.375 7.433594 5.375 7.429688 5.375 7.429688 C 5.648438 6.796875 6.328125 6.453125 6.921875 6.058594 C 7.652344 5.574219 8.425781 4.96875 9.363281 5.015625 C 9.875 5.042969 10.660156 5.230469 10.828125 5.785156 C 10.9375 6.164062 10.878906 6.578125 10.6875 6.925781 C 10.175781 7.832031 9.210938 7.578125 8.34375 7.429688 C 8.34375 7.429688 8.339844 7.429688 8.335938 7.429688 C 8.320312 7.421875 8.304688 7.414062 8.285156 7.410156 C 8.292969 7.402344 8.296875 7.394531 8.300781 7.386719 C 8.320312 7.363281 8.347656 7.335938 8.375 7.308594 C 8.464844 7.214844 8.582031 7.132812 8.691406 7.078125 C 8.804688 7.023438 8.910156 6.976562 9.003906 6.945312 C 9.191406 6.878906 9.308594 6.832031 9.304688 6.808594 C 9.296875 6.789062 9.171875 6.792969 8.96875 6.832031 C 8.773438 6.875 8.484375 6.957031 8.246094 7.195312 C 8.21875 7.226562 8.195312 7.25 8.171875 7.28125 C 8.148438 7.320312 8.125 7.355469 8.105469 7.386719 C 8.082031 7.421875 8.074219 7.457031 8.058594 7.492188 C 8.046875 7.523438 8.03125 7.558594 8.023438 7.589844 C 7.996094 7.679688 7.984375 7.765625 7.96875 7.839844 C 7.726562 8.351562 7.402344 8.941406 6.828125 8.953125 C 7.183594 8.472656 7.359375 7.929688 6.960938 7.46875 C 6.617188 7.070312 6.007812 6.828125 5.558594 7.238281 C 5.488281 7.300781 5.429688 7.367188 5.375 7.4375 Z M 5.195312 8.253906 C 5.429688 8.171875 5.789062 8.324219 5.964844 8.453125 C 6.1875 8.617188 6.296875 8.851562 6.320312 9.109375 C 6.285156 9.144531 6.25 9.179688 6.210938 9.214844 C 6.148438 8.949219 6.0625 8.703125 5.84375 8.507812 C 5.664062 8.351562 5.433594 8.269531 5.195312 8.253906 Z M 6.058594 8.300781 C 5.859375 8.175781 5.558594 8.035156 5.296875 8.050781 C 5.328125 8.007812 5.359375 7.964844 5.386719 7.921875 C 5.402344 7.898438 5.417969 7.871094 5.4375 7.84375 C 6.023438 7.734375 6.554688 8.273438 6.558594 8.832031 C 6.53125 8.867188 6.503906 8.902344 6.476562 8.933594 C 6.421875 8.683594 6.289062 8.445312 6.058594 8.300781 Z M 5.171875 7.171875 C 5.058594 6.953125 5.140625 6.667969 5.167969 6.410156 C 5.199219 6.398438 5.214844 6.367188 5.214844 6.335938 C 5.320312 6.335938 5.425781 6.328125 5.535156 6.3125 C 5.5625 6.308594 5.59375 6.277344 5.597656 6.25 C 5.652344 5.878906 5.882812 5.160156 5.367188 5.023438 C 5.492188 3.214844 8.070312 3.472656 9.367188 3.695312 C 9.984375 3.800781 10.617188 3.898438 11.226562 4.039062 C 11.5625 4.121094 12.015625 4.210938 12.253906 4.484375 C 12.285156 4.523438 12.316406 4.566406 12.34375 4.609375 C 12.234375 4.507812 12.089844 4.433594 11.902344 4.386719 C 10.777344 4.109375 9.59375 4.03125 8.453125 3.867188 C 7.902344 3.785156 7.003906 3.695312 6.597656 4.171875 C 6.390625 4.417969 6.335938 4.792969 6.273438 5.089844 C 6.195312 5.472656 6.136719 5.855469 6.097656 6.242188 C 5.71875 6.503906 5.382812 6.789062 5.171875 7.171875 Z M 4.941406 8.523438 C 4.964844 8.492188 4.988281 8.464844 5.011719 8.433594 C 5.339844 8.40625 5.707031 8.523438 5.875 8.816406 C 5.96875 8.976562 6.015625 9.15625 6.054688 9.339844 C 5.933594 8.859375 5.453125 8.578125 4.941406 8.523438 Z M 4.765625 5.824219 C 4.875 5.691406 4.90625 5.5 4.855469 5.339844 C 4.933594 5.351562 5.007812 5.367188 5.058594 5.390625 C 5.164062 5.484375 5.277344 5.933594 5.015625 5.875 C 4.929688 5.851562 4.847656 5.835938 4.765625 5.824219 Z M 4.695312 8.84375 C 4.734375 8.792969 4.769531 8.742188 4.808594 8.691406 C 5.324219 8.710938 5.835938 8.976562 5.894531 9.488281 C 5.828125 9.546875 5.761719 9.59375 5.695312 9.640625 C 5.675781 9.417969 5.582031 9.207031 5.375 9.074219 C 5.171875 8.941406 4.929688 8.890625 4.695312 8.84375 Z M 4.417969 5.660156 C 4.414062 5.589844 4.40625 5.5 4.453125 5.441406 C 4.496094 5.382812 4.574219 5.355469 4.660156 5.339844 C 4.660156 5.34375 4.660156 5.34375 4.660156 5.34375 C 4.746094 5.488281 4.6875 5.707031 4.53125 5.78125 C 4.523438 5.785156 4.519531 5.792969 4.511719 5.796875 C 4.449219 5.785156 4.417969 5.75 4.417969 5.660156 Z M 4.234375 5.847656 C 4.242188 5.851562 4.246094 5.847656 4.257812 5.847656 C 4.261719 5.847656 4.269531 5.847656 4.273438 5.847656 C 4.277344 5.847656 4.277344 5.851562 4.28125 5.851562 C 4.3125 5.90625 4.359375 5.949219 4.429688 5.964844 C 4.582031 5.996094 4.734375 5.980469 4.886719 6.023438 C 4.996094 6.054688 5.148438 6.085938 5.238281 5.988281 C 5.417969 5.792969 5.402344 5.449219 5.195312 5.269531 C 5.1875 5.257812 5.175781 5.246094 5.15625 5.238281 C 4.929688 5.140625 4.445312 5.09375 4.296875 5.351562 C 4.277344 5.382812 4.261719 5.421875 4.25 5.464844 C 4.246094 5.464844 4.242188 5.460938 4.238281 5.460938 C 4.238281 5.453125 4.242188 5.445312 4.242188 5.441406 C 4.25 5.199219 4.253906 4.816406 4.566406 4.753906 C 4.785156 4.710938 5.003906 4.722656 5.222656 4.75 C 5.203125 4.84375 5.1875 4.941406 5.179688 5.046875 C 5.179688 5.058594 5.183594 5.070312 5.1875 5.082031 C 5.171875 5.125 5.191406 5.171875 5.25 5.179688 C 5.53125 5.21875 5.535156 5.480469 5.503906 5.710938 C 5.488281 5.832031 5.464844 5.953125 5.441406 6.078125 C 5.425781 6.164062 5.453125 6.148438 5.359375 6.15625 C 5.285156 6.160156 5.214844 6.160156 5.136719 6.15625 C 5.109375 6.152344 5.085938 6.160156 5.074219 6.175781 C 5.039062 6.179688 5.011719 6.195312 5 6.230469 C 4.726562 6.226562 4.300781 6.238281 4.246094 5.96875 C 4.242188 5.929688 4.238281 5.886719 4.234375 5.847656 Z M 4.230469 5.683594 C 4.230469 5.683594 4.230469 5.683594 4.230469 5.679688 C 4.230469 5.683594 4.230469 5.683594 4.230469 5.683594 Z M 4.796875 8.222656 C 3.578125 7.722656 3.769531 6.472656 3.988281 5.414062 C 4.085938 4.933594 4.207031 4.421875 4.472656 3.996094 C 4.816406 3.4375 5.269531 3.238281 5.921875 3.132812 C 6.785156 2.988281 7.632812 2.996094 8.503906 3.070312 C 9.273438 3.140625 10.050781 3.160156 10.8125 3.277344 C 11.496094 3.378906 12.222656 3.570312 12.71875 4.074219 C 13.167969 4.53125 13.1875 5.054688 13.15625 5.636719 C 12.992188 5.605469 12.828125 5.585938 12.660156 5.578125 C 12.671875 4.78125 12.542969 4.242188 11.675781 3.976562 C 10.8125 3.714844 9.859375 3.582031 8.96875 3.457031 C 7.714844 3.28125 5.71875 3.246094 5.269531 4.578125 C 4.992188 4.542969 4.46875 4.464844 4.265625 4.714844 C 4.078125 4.9375 4.0625 5.226562 4.054688 5.503906 C 4.050781 5.710938 3.996094 6.035156 4.167969 6.199219 C 4.378906 6.40625 4.703125 6.390625 4.988281 6.402344 C 4.964844 6.75 4.863281 7.09375 5.082031 7.359375 C 5.011719 7.527344 4.96875 7.710938 4.949219 7.917969 C 4.949219 7.949219 4.957031 7.976562 4.96875 8 C 4.914062 8.074219 4.855469 8.148438 4.796875 8.222656 Z M 1.417969 16.792969 C 1.128906 16.832031 0.828125 16.878906 0.566406 16.753906 C 0.617188 15.253906 1.308594 13.773438 2.0625 12.488281 C 2.757812 11.292969 3.453125 10.019531 4.566406 9.136719 C 4.574219 9.132812 4.578125 9.128906 4.582031 9.121094 C 4.765625 9.152344 4.953125 9.1875 5.113281 9.265625 C 5.347656 9.386719 5.40625 9.574219 5.394531 9.816406 C 4.238281 10.453125 3.605469 11.832031 2.996094 12.914062 C 2.578125 13.65625 2.160156 14.402344 1.835938 15.191406 C 1.632812 15.691406 1.390625 16.246094 1.417969 16.792969 Z M 0.261719 16.78125 C 0.242188 16.839844 0.253906 16.910156 0.320312 16.957031 C 0.6875 17.210938 1.128906 17.117188 1.546875 17.074219 C 1.550781 17.074219 1.554688 17.074219 1.558594 17.074219 C 1.644531 17.074219 1.746094 17 1.726562 16.886719 C 1.613281 16.1875 2.113281 15.257812 2.414062 14.652344 C 2.730469 14.003906 3.082031 13.378906 3.4375 12.75 C 3.96875 11.800781 4.539062 10.628906 5.542969 10.070312 C 5.574219 10.074219 5.605469 10.070312 5.636719 10.046875 C 5.871094 9.890625 6.191406 9.644531 6.480469 9.355469 C 6.480469 9.355469 6.484375 9.355469 6.484375 9.355469 C 8.042969 9.753906 9.539062 10.058594 11.164062 9.871094 C 11.839844 9.792969 12.40625 9.59375 12.699219 9.117188 C 12.574219 9.890625 12.464844 10.667969 12.40625 11.445312 C 12.363281 11.957031 12.433594 12.519531 13.070312 12.546875 C 13.132812 12.546875 13.175781 12.519531 13.199219 12.476562 C 13.921875 12.347656 14.335938 11.582031 14.605469 10.980469 C 14.980469 10.144531 15.199219 9.238281 15.363281 8.347656 C 15.632812 6.886719 15.582031 5.402344 15.632812 3.925781 C 15.664062 3.011719 15.613281 1.238281 14.339844 1.148438 C 14.285156 1.144531 14.246094 1.164062 14.222656 1.199219 C 14.175781 1.21875 14.144531 1.261719 14.136719 1.320312 C 14.074219 1.953125 13.851562 2.546875 13.679688 3.15625 C 13.550781 3.625 13.460938 4.105469 13.390625 4.585938 C 13.324219 4.363281 13.214844 4.152344 13.035156 3.96875 C 12.507812 3.429688 11.800781 3.128906 11.050781 3.015625 C 10.085938 2.867188 9.097656 2.808594 8.128906 2.742188 C 7.199219 2.675781 6.179688 2.691406 5.28125 2.964844 C 4.09375 3.332031 3.765625 4.730469 3.617188 5.785156 C 3.453125 6.917969 3.464844 7.9375 4.609375 8.464844 C 4.503906 8.597656 4.394531 8.738281 4.292969 8.875 C 4.265625 8.917969 4.261719 8.960938 4.273438 8.992188 C 3.148438 9.917969 2.40625 11.253906 1.710938 12.492188 C 0.972656 13.796875 0.304688 15.265625 0.261719 16.777344 C 0.261719 16.78125 0.261719 16.78125 0.261719 16.78125 " fill-opacity="1" fill-rule="nonzero"/></g><path fill="#000000" d="M 1.457031 15.175781 C 1.402344 15.332031 1.375 15.421875 1.386719 15.425781 C 1.398438 15.429688 1.445312 15.351562 1.519531 15.203125 C 1.554688 15.128906 1.597656 15.035156 1.652344 14.929688 C 1.675781 14.878906 1.703125 14.820312 1.730469 14.757812 C 1.757812 14.699219 1.785156 14.632812 1.8125 14.5625 C 1.921875 14.289062 2.054688 13.964844 2.203125 13.605469 C 2.238281 13.515625 2.273438 13.421875 2.316406 13.332031 C 2.359375 13.238281 2.402344 13.144531 2.449219 13.046875 C 2.492188 12.949219 2.539062 12.851562 2.585938 12.753906 C 2.628906 12.65625 2.683594 12.554688 2.734375 12.457031 C 3.148438 11.660156 3.585938 10.96875 3.964844 10.515625 C 4.148438 10.289062 4.320312 10.117188 4.445312 10.011719 C 4.503906 9.953125 4.558594 9.917969 4.589844 9.890625 C 4.625 9.859375 4.640625 9.84375 4.636719 9.835938 C 4.632812 9.832031 4.609375 9.839844 4.570312 9.859375 C 4.53125 9.882812 4.472656 9.90625 4.402344 9.960938 C 4.257812 10.054688 4.074219 10.21875 3.871094 10.441406 C 3.460938 10.886719 3 11.578125 2.582031 12.382812 C 2.527344 12.484375 2.476562 12.578125 2.429688 12.683594 C 2.382812 12.785156 2.339844 12.882812 2.292969 12.980469 C 2.25 13.078125 2.207031 13.171875 2.167969 13.265625 C 2.125 13.359375 2.09375 13.453125 2.054688 13.546875 C 1.914062 13.914062 1.796875 14.246094 1.699219 14.523438 C 1.675781 14.59375 1.652344 14.660156 1.628906 14.722656 C 1.605469 14.785156 1.582031 14.839844 1.5625 14.894531 C 1.523438 15.003906 1.484375 15.101562 1.457031 15.175781 " fill-opacity="1" fill-rule="nonzero"/><path fill="#000000" d="M 3.335938 15.867188 C 3.316406 15.691406 3.207031 15.628906 3.074219 15.59375 C 3.34375 15.402344 3.566406 15.015625 3.835938 14.882812 C 3.90625 15.105469 3.964844 15.332031 4.035156 15.554688 C 4.058594 15.640625 4.082031 15.757812 4.121094 15.863281 C 4 15.84375 3.878906 15.828125 3.761719 15.792969 C 3.71875 15.78125 3.660156 15.808594 3.652344 15.855469 C 3.589844 16.136719 3.585938 16.417969 3.585938 16.707031 C 3.421875 16.65625 3.21875 16.585938 3.042969 16.574219 C 3.183594 16.359375 3.359375 16.09375 3.335938 15.867188 Z M 2.824219 15.589844 C 2.808594 15.609375 2.789062 15.632812 2.777344 15.652344 C 2.980469 15.742188 3.214844 15.800781 3.101562 16.070312 C 3.015625 16.261719 2.90625 16.441406 2.796875 16.621094 C 2.777344 16.640625 2.769531 16.667969 2.78125 16.695312 C 2.789062 16.75 2.859375 16.785156 2.910156 16.757812 C 3.0625 16.691406 3.492188 16.871094 3.652344 16.90625 C 3.710938 16.917969 3.769531 16.878906 3.769531 16.820312 C 3.769531 16.539062 3.761719 16.265625 3.8125 15.988281 C 3.960938 16.019531 4.113281 16.035156 4.265625 16.070312 C 4.355469 16.09375 4.417969 15.988281 4.351562 15.921875 C 4.222656 15.789062 4.1875 15.429688 4.136719 15.257812 C 4.085938 15.085938 4.039062 14.910156 3.984375 14.742188 C 3.96875 14.695312 3.921875 14.664062 3.871094 14.679688 C 3.683594 14.730469 3.53125 14.890625 3.394531 15.019531 C 3.214844 15.1875 2.976562 15.386719 2.824219 15.589844 " fill-opacity="1" fill-rule="nonzero"/><path fill="#000000" d="M 4.085938 13.691406 C 4.269531 13.507812 4.453125 13.3125 4.539062 13.070312 C 4.597656 12.910156 4.492188 12.8125 4.355469 12.746094 C 4.660156 12.613281 4.96875 12.289062 5.261719 12.222656 C 5.277344 12.4375 5.28125 12.65625 5.292969 12.871094 C 5.300781 12.972656 5.289062 13.113281 5.304688 13.238281 C 5.191406 13.195312 5.082031 13.15625 4.976562 13.097656 C 4.9375 13.074219 4.875 13.085938 4.851562 13.128906 C 4.726562 13.390625 4.65625 13.664062 4.585938 13.941406 C 4.441406 13.859375 4.253906 13.742188 4.085938 13.691406 Z M 3.804688 13.753906 C 3.804688 13.761719 3.804688 13.765625 3.808594 13.773438 C 3.808594 13.777344 3.808594 13.78125 3.808594 13.78125 C 3.8125 13.789062 3.816406 13.792969 3.820312 13.800781 C 3.820312 13.804688 3.824219 13.8125 3.828125 13.816406 C 3.832031 13.820312 3.835938 13.820312 3.839844 13.824219 C 3.84375 13.828125 3.847656 13.832031 3.855469 13.835938 C 3.859375 13.839844 3.867188 13.839844 3.875 13.84375 C 3.875 13.84375 3.878906 13.84375 3.878906 13.84375 C 3.894531 13.847656 3.910156 13.847656 3.925781 13.84375 C 4.085938 13.816406 4.457031 14.085938 4.601562 14.152344 C 4.652344 14.171875 4.722656 14.15625 4.734375 14.097656 C 4.804688 13.824219 4.863281 13.554688 4.976562 13.292969 C 5.113281 13.359375 5.257812 13.402344 5.394531 13.476562 C 5.472656 13.515625 5.570312 13.433594 5.519531 13.355469 C 5.429688 13.207031 5.476562 12.871094 5.464844 12.707031 C 5.457031 12.511719 5.453125 12.316406 5.4375 12.121094 C 5.433594 12.074219 5.402344 12.027344 5.347656 12.03125 C 5.132812 12.042969 4.933594 12.179688 4.753906 12.285156 C 4.511719 12.425781 4.242188 12.53125 4.015625 12.675781 C 4.304688 12.90625 4.441406 13.03125 4.164062 13.34375 C 4.058594 13.460938 3.949219 13.574219 3.835938 13.6875 C 3.824219 13.699219 3.816406 13.710938 3.808594 13.726562 C 3.808594 13.730469 3.808594 13.730469 3.808594 13.734375 C 3.808594 13.742188 3.804688 13.746094 3.804688 13.753906 " fill-opacity="1" fill-rule="nonzero"/><path fill="#000000" d="M 5.667969 11.351562 C 5.894531 11.214844 6.128906 11.070312 6.265625 10.851562 C 6.355469 10.710938 6.28125 10.59375 6.167969 10.5 C 6.496094 10.445312 6.878906 10.203125 7.179688 10.207031 C 7.136719 10.429688 7.085938 10.648438 7.039062 10.871094 C 7.019531 10.957031 6.980469 11.085938 6.960938 11.207031 C 6.863281 11.136719 6.765625 11.070312 6.679688 10.988281 C 6.648438 10.957031 6.585938 10.953125 6.550781 10.988281 C 6.359375 11.210938 6.226562 11.460938 6.085938 11.714844 C 5.96875 11.601562 5.816406 11.441406 5.667969 11.351562 Z M 5.375 11.363281 C 5.375 11.367188 5.375 11.371094 5.375 11.375 C 5.375 11.382812 5.375 11.386719 5.378906 11.390625 C 5.378906 11.398438 5.382812 11.402344 5.382812 11.410156 C 5.386719 11.414062 5.390625 11.417969 5.394531 11.421875 C 5.394531 11.425781 5.398438 11.429688 5.398438 11.429688 C 5.417969 11.453125 5.449219 11.464844 5.484375 11.457031 C 5.640625 11.484375 5.929688 11.8125 6.046875 11.90625 C 6.089844 11.941406 6.160156 11.933594 6.191406 11.878906 C 6.328125 11.632812 6.449219 11.410156 6.621094 11.15625 C 6.734375 11.273438 6.855469 11.324219 6.964844 11.410156 C 6.964844 11.414062 6.964844 11.414062 6.964844 11.414062 C 6.972656 11.417969 6.980469 11.425781 6.988281 11.429688 C 7.050781 11.488281 7.171875 11.457031 7.140625 11.367188 C 7.085938 11.207031 7.226562 10.863281 7.261719 10.703125 C 7.296875 10.519531 7.34375 10.339844 7.375 10.15625 C 7.382812 10.109375 7.367188 10.058594 7.3125 10.046875 C 7.097656 10.003906 6.863281 10.09375 6.660156 10.152344 C 6.40625 10.226562 6.058594 10.261719 5.832031 10.382812 C 5.890625 10.636719 6.257812 10.707031 5.921875 10.964844 C 5.761719 11.085938 5.589844 11.1875 5.417969 11.292969 C 5.414062 11.296875 5.414062 11.296875 5.410156 11.296875 C 5.402344 11.304688 5.398438 11.308594 5.390625 11.316406 C 5.390625 11.320312 5.386719 11.324219 5.382812 11.332031 C 5.382812 11.335938 5.378906 11.339844 5.378906 11.34375 C 5.375 11.351562 5.375 11.355469 5.375 11.363281 " fill-opacity="1" fill-rule="nonzero"/><path fill="#000000" d="M 7.058594 6.097656 C 6.898438 6.261719 6.839844 6.386719 6.855469 6.398438 C 6.875 6.414062 6.96875 6.316406 7.140625 6.1875 C 7.226562 6.121094 7.335938 6.050781 7.457031 5.976562 C 7.578125 5.90625 7.71875 5.832031 7.871094 5.761719 C 8.171875 5.621094 8.457031 5.511719 8.660156 5.421875 C 8.867188 5.335938 8.988281 5.273438 8.980469 5.25 C 8.972656 5.230469 8.835938 5.253906 8.621094 5.3125 C 8.40625 5.371094 8.109375 5.46875 7.796875 5.609375 C 7.640625 5.683594 7.496094 5.765625 7.371094 5.847656 C 7.246094 5.933594 7.140625 6.015625 7.058594 6.097656 " fill-opacity="1" fill-rule="nonzero"/><path fill="#000000" d="M 9.792969 7.074219 C 9.601562 7.160156 9.46875 7.183594 9.472656 7.210938 C 9.472656 7.230469 9.617188 7.25 9.835938 7.183594 C 9.890625 7.167969 9.949219 7.148438 10.011719 7.117188 C 10.039062 7.101562 10.070312 7.089844 10.101562 7.070312 C 10.132812 7.050781 10.164062 7.03125 10.195312 7.011719 C 10.320312 6.925781 10.445312 6.808594 10.539062 6.660156 C 10.632812 6.511719 10.679688 6.347656 10.6875 6.195312 C 10.6875 6.15625 10.6875 6.121094 10.6875 6.082031 C 10.683594 6.046875 10.675781 6.011719 10.671875 5.980469 C 10.667969 5.945312 10.65625 5.914062 10.644531 5.886719 C 10.632812 5.855469 10.621094 5.828125 10.613281 5.804688 C 10.558594 5.699219 10.507812 5.625 10.460938 5.585938 C 10.417969 5.542969 10.386719 5.523438 10.378906 5.53125 C 10.367188 5.535156 10.378906 5.570312 10.40625 5.621094 C 10.4375 5.675781 10.464844 5.753906 10.5 5.84375 C 10.503906 5.867188 10.511719 5.894531 10.515625 5.921875 C 10.523438 5.945312 10.53125 5.972656 10.53125 6.003906 C 10.535156 6.03125 10.535156 6.058594 10.539062 6.089844 C 10.535156 6.121094 10.535156 6.152344 10.53125 6.183594 C 10.515625 6.308594 10.472656 6.445312 10.390625 6.574219 C 10.308594 6.703125 10.207031 6.804688 10.101562 6.890625 C 10.074219 6.910156 10.046875 6.929688 10.019531 6.949219 C 9.996094 6.964844 9.96875 6.980469 9.941406 6.996094 C 9.890625 7.03125 9.839844 7.050781 9.792969 7.074219 " fill-opacity="1" fill-rule="nonzero"/></g></g></g></svg>